<svg width="13" height="13" viewBox="0 0 13 13" fill="none" xmlns="http://www.w3.org/2000/svg">
<path d="M6.1448 11.9006C3.17312 11.9006 0.75769 9.4852 0.75769 6.51352C0.75769 3.54183 3.17312 1.1264 6.1448 1.1264C9.11648 1.1264 11.5319 3.54183 11.5319 6.51352C11.5319 9.4852 9.11648 11.9006 6.1448 11.9006ZM6.1448 1.87809C3.58906 1.87809 1.50938 3.95777 1.50938 6.51352C1.50938 9.06926 3.58906 11.1489 6.1448 11.1489C8.70055 11.1489 10.7802 9.06926 10.7802 6.51352C10.7802 3.95777 8.70055 1.87809 6.1448 1.87809Z" fill="#0EBF7C"/>
<path d="M6.14477 8.64331C5.9393 8.64331 5.76892 8.47292 5.76892 8.26746V5.2607C5.76892 5.05524 5.9393 4.88486 6.14477 4.88486C6.35023 4.88486 6.52061 5.05524 6.52061 5.2607V8.26746C6.52061 8.47292 6.35023 8.64331 6.14477 8.64331Z" fill="#0EBF7C"/>
<path d="M7.64814 6.6388C7.55292 6.6388 7.45771 6.60372 7.38254 6.52855L6.14476 5.29077L4.90697 6.52855C4.76165 6.67388 4.52111 6.67388 4.37578 6.52855C4.23045 6.38322 4.23045 6.14268 4.37578 5.99735L5.87916 4.49397C6.02449 4.34865 6.26503 4.34865 6.41035 4.49397L7.91373 5.99735C8.05906 6.14268 8.05906 6.38322 7.91373 6.52855C7.83856 6.60372 7.74335 6.6388 7.64814 6.6388Z" fill="#0EBF7C"/>
</svg>
