<svg width="14" height="17" viewBox="0 0 14 17" fill="none" xmlns="http://www.w3.org/2000/svg">
<path d="M13.6586 6.89731C13.9238 5.12414 12.5739 4.17099 10.7279 3.53515L11.3267 1.13324L9.8646 0.768915L9.28165 3.10759C8.89726 3.01172 8.50252 2.92139 8.11019 2.83184L8.69738 0.477728L7.23618 0.113403L6.637 2.51453C6.31892 2.44211 6.0065 2.37054 5.70339 2.29512L5.70509 2.28756L3.6888 1.78406L3.29985 3.3457C3.29985 3.3457 4.38462 3.59435 4.36176 3.60966C4.95384 3.75743 5.06091 4.14937 5.04313 4.46003L4.36098 7.19638C4.40175 7.20673 4.45463 7.22171 4.51299 7.24516C4.46421 7.23304 4.4123 7.21982 4.35844 7.20693L3.4023 11.0402C3.32994 11.22 3.14628 11.49 2.73233 11.3875C2.74698 11.4087 1.66964 11.1223 1.66964 11.1223L0.943726 12.7959L2.84643 13.2703C3.2004 13.359 3.54727 13.4519 3.88887 13.5392L3.28383 15.9687L4.74426 16.333L5.34343 13.9294C5.74241 14.0377 6.12959 14.1376 6.50864 14.2317L5.91148 16.6241L7.37366 16.9884L7.97863 14.5635C10.4719 15.0354 12.3466 14.8451 13.1356 12.59C13.7715 10.7744 13.104 9.72711 11.7923 9.04418C12.7477 8.82385 13.4668 8.19531 13.6586 6.89731ZM10.318 11.5817C9.86617 13.3973 6.8092 12.4158 5.81808 12.1697L6.62098 8.95111C7.61203 9.19853 10.7902 9.68816 10.318 11.5817ZM10.7702 6.871C10.358 8.52251 7.81366 7.68347 6.9883 7.47773L7.71623 4.55864C8.5416 4.76437 11.1995 5.14837 10.7702 6.871Z" fill="#F2921D"/>
</svg>
