<svg width="63" height="62" viewBox="0 0 63 62" fill="none" xmlns="http://www.w3.org/2000/svg">
<path d="M57.3335 21.9583C57.3335 30.38 51.1335 37.3291 43.0735 38.5433V38.3883C42.2726 28.365 34.1351 20.2275 24.0343 19.4266H23.9568C25.171 11.3666 32.1201 5.16663 40.5418 5.16663C49.816 5.16663 57.3335 12.6841 57.3335 21.9583Z" fill="#F2921D"/>
<path d="M39.1984 38.6983C38.5526 30.5092 31.9909 23.9475 23.8017 23.3017C23.3626 23.2758 22.8976 23.25 22.4584 23.25C13.1842 23.25 5.66675 30.7675 5.66675 40.0417C5.66675 49.3158 13.1842 56.8333 22.4584 56.8333C31.7326 56.8333 39.2501 49.3158 39.2501 40.0417C39.2501 39.6025 39.2242 39.1375 39.1984 38.6983ZM24.7317 42.315L22.4584 46.5L20.1851 42.315L16.0001 40.0417L20.1851 37.7683L22.4584 33.5833L24.7317 37.7683L28.9167 40.0417L24.7317 42.315Z" fill="#F2921D"/>
</svg>
