<svg width="12" height="19" viewBox="0 0 12 19" fill="none" xmlns="http://www.w3.org/2000/svg">
<path fill-rule="evenodd" clip-rule="evenodd" d="M4.29683 0.550903C5.33632 0.550903 6.37199 0.550903 7.41148 0.550903C7.35033 1.25409 7.28537 1.96109 7.22804 2.66428C8.43951 2.75218 9.6204 3.14199 10.6828 3.71906C10.2242 4.8732 9.7618 6.02734 9.29938 7.18148C8.40511 6.42097 7.22804 6.00059 6.05479 6.01587C5.76052 6.02351 5.45479 6.08084 5.21021 6.24899C5.0497 6.35982 4.93123 6.53179 4.89683 6.72288C4.87008 6.87574 4.87772 7.04772 4.9618 7.1853C5.05734 7.33816 5.22549 7.42988 5.39365 7.48721C5.7376 7.6095 6.1083 7.61715 6.46753 7.65536C7.31212 7.75855 8.16053 7.90377 8.95925 8.20568C9.57836 8.44262 10.1707 8.79804 10.5949 9.31778C10.9962 9.79549 11.2293 10.3993 11.3172 11.0184C11.4204 11.7331 11.3898 12.4745 11.1682 13.17C10.9962 13.728 10.7019 14.2477 10.3198 14.6872C9.52868 15.6044 8.36689 16.1547 7.17454 16.2961C7.21275 17.049 7.25861 17.798 7.30065 18.5509C6.31467 18.5509 5.3325 18.5509 4.35033 18.5509C4.38855 17.8057 4.43823 17.0605 4.47263 16.3152C3.68154 16.2885 2.8981 16.1127 2.16052 15.8337C1.44588 15.5624 0.76562 15.2031 0.131226 14.7827C0.597468 13.5827 1.06371 12.3828 1.53377 11.1789C2.06498 11.6261 2.63059 12.0426 3.2497 12.3598C3.91466 12.6999 4.65224 12.9178 5.40129 12.9254C5.7567 12.9292 6.12358 12.9101 6.45989 12.7878C6.66626 12.7114 6.86881 12.5777 6.96053 12.3675C7.05607 12.1458 7.04842 11.8668 6.9032 11.6681C6.80002 11.5343 6.65479 11.4426 6.50193 11.3777C6.29556 11.2936 6.08154 11.2477 5.86371 11.2133C5.06116 11.0834 4.25479 10.9764 3.479 10.7242C2.85607 10.5216 2.24842 10.2388 1.75161 9.80313C1.43823 9.53179 1.17836 9.19931 0.99492 8.82479C0.719761 8.26683 0.616576 7.63625 0.624219 7.01715C0.624219 6.32543 0.765621 5.62224 1.10957 5.0146C1.40766 4.47192 1.86244 4.02861 2.37454 3.68848C2.99365 3.27957 3.68537 3.00058 4.38855 2.77511C4.35798 2.03371 4.3274 1.2923 4.29683 0.550903Z" fill="#83BD67"/>
</svg>
