<svg width="63" height="62" viewBox="0 0 63 62" fill="none" xmlns="http://www.w3.org/2000/svg">
<path d="M38.8624 10.2041V20.0208H34.9874V10.2041C34.9874 9.50661 34.3674 9.17078 33.9541 9.17078C33.8249 9.17078 33.6958 9.19661 33.5666 9.24828L13.0808 16.9724C11.7116 17.4891 10.8333 18.7808 10.8333 20.2533V21.9841C8.48242 23.7408 6.95825 26.5566 6.95825 29.7341V20.2533C6.95825 17.1791 8.84409 14.4408 11.7116 13.3558L32.2233 5.60578C32.7916 5.39911 33.3857 5.29578 33.9541 5.29578C36.5374 5.29578 38.8624 7.38828 38.8624 10.2041Z" fill="#F2921D"/>
<path d="M56.0416 37.4583V40.0416C56.0416 40.7391 55.4991 41.3075 54.7758 41.3333H51.0041C49.6349 41.3333 48.3949 40.3258 48.2916 38.9825C48.2141 38.1816 48.5241 37.4325 49.0408 36.9158C49.5058 36.425 50.1516 36.1666 50.8491 36.1666H54.7499C55.4991 36.1925 56.0416 36.7608 56.0416 37.4583Z" fill="#F2921D"/>
<path d="M50.8232 33.4542H53.4583C54.8791 33.4542 56.0416 32.2917 56.0416 30.8709V29.7342C56.0416 24.3867 51.6758 20.0209 46.3283 20.0209H16.6716C14.4758 20.0209 12.4608 20.7442 10.8333 21.9842C8.48242 23.7409 6.95825 26.5567 6.95825 29.7342V47.12C6.95825 52.4675 11.3241 56.8334 16.6716 56.8334H46.3283C51.6758 56.8334 56.0416 52.4675 56.0416 47.12V46.6292C56.0416 45.2084 54.8791 44.0459 53.4583 44.0459H51.2107C48.7307 44.0459 46.3541 42.5217 45.7083 40.1192C45.1658 38.1559 45.8116 36.27 47.1033 35.0042C48.0591 34.0225 49.3766 33.4542 50.8232 33.4542ZM36.6666 32.9375H18.5833C17.5241 32.9375 16.6458 32.0592 16.6458 31C16.6458 29.9409 17.5241 29.0625 18.5833 29.0625H36.6666C37.7258 29.0625 38.6041 29.9409 38.6041 31C38.6041 32.0592 37.7258 32.9375 36.6666 32.9375Z" fill="#F2921D"/>
</svg>
