<svg width="16" height="16" viewBox="0 0 16 16" fill="none" xmlns="http://www.w3.org/2000/svg">
<path opacity="0.4" d="M6.50705 9.57787C6.12371 9.1952 5.89038 8.6752 5.89038 8.09187C5.89038 6.9232 6.83171 5.9812 7.99971 5.9812C8.57771 5.9812 9.10971 6.2152 9.48638 6.59787" stroke="#D2D2E9" stroke-width="1.5" stroke-linecap="round" stroke-linejoin="round"/>
<path opacity="0.4" d="M10.0699 8.46593C9.91521 9.32593 9.23787 10.0046 8.37854 10.1606" stroke="#D2D2E9" stroke-width="1.5" stroke-linecap="round" stroke-linejoin="round"/>
<path d="M4.4364 11.6482C3.3784 10.8175 2.4824 9.6042 1.83307 8.09153C2.48907 6.5722 3.39107 5.3522 4.45574 4.51487C5.51374 3.67753 6.7344 3.22287 7.99974 3.22287C9.2724 3.22287 10.4924 3.6842 11.5571 4.52753" stroke="#D2D2E9" stroke-width="1.5" stroke-linecap="round" stroke-linejoin="round"/>
<path d="M12.965 5.99387C13.4237 6.6032 13.827 7.30653 14.1664 8.0912C12.855 11.1292 10.5377 12.9592 7.99971 12.9592C7.42437 12.9592 6.85704 12.8659 6.31171 12.6839" stroke="#D2D2E9" stroke-width="1.5" stroke-linecap="round" stroke-linejoin="round"/>
<path d="M13.258 2.83307L2.742 13.3491" stroke="#D2D2E9" stroke-width="1.5" stroke-linecap="round" stroke-linejoin="round"/>
</svg>
