<svg width="21" height="20" viewBox="0 0 21 20" fill="none" xmlns="http://www.w3.org/2000/svg">
<path fill-rule="evenodd" clip-rule="evenodd" d="M10.5002 0.750183C15.6082 0.750183 19.7502 4.89218 19.7502 10.0002C19.7502 15.1082 15.6082 19.2502 10.5002 19.2502C5.39118 19.2502 1.25018 15.1082 1.25018 10.0002C1.25018 4.89218 5.39118 0.750183 10.5002 0.750183Z" stroke="#1C1C93" stroke-width="1.5" stroke-linecap="round" stroke-linejoin="round"/>
<path opacity="0.4" d="M6.02069 11.1974C5.35969 11.1974 4.82269 10.6604 4.82269 10.0004C4.82269 9.34037 5.35969 8.80237 6.02069 8.80237C6.68169 8.80237 7.21869 9.34037 7.21869 10.0004C7.21869 10.6604 6.68169 11.1974 6.02069 11.1974Z" fill="#1C1C93"/>
<path opacity="0.4" d="M10.5002 11.1974C9.83918 11.1974 9.30219 10.6604 9.30219 10.0004C9.30219 9.34037 9.83918 8.80237 10.5002 8.80237C11.1612 8.80237 11.6982 9.34037 11.6982 10.0004C11.6982 10.6604 11.1612 11.1974 10.5002 11.1974Z" fill="#1C1C93"/>
<path opacity="0.4" d="M14.9792 11.1974C14.3182 11.1974 13.7812 10.6604 13.7812 10.0004C13.7812 9.34037 14.3182 8.80237 14.9792 8.80237C15.6402 8.80237 16.1772 9.34037 16.1772 10.0004C16.1772 10.6604 15.6402 11.1974 14.9792 11.1974Z" fill="#1C1C93"/>
</svg>
