<svg width="63" height="62" viewBox="0 0 63 62" fill="none" xmlns="http://www.w3.org/2000/svg">
<path d="M34.8583 20.9509L38.2683 27.7709C38.7333 28.7009 39.9733 29.6309 41.0067 29.7859L47.1808 30.8192C51.1333 31.4909 52.0633 34.3325 49.2217 37.1742L44.4167 42.005C43.6158 42.8059 43.1508 44.3817 43.4092 45.5184L44.7783 51.4859C45.8633 56.1875 43.3575 58.0217 39.1983 55.5675L33.4117 52.1317C32.3525 51.5117 30.6475 51.5117 29.5883 52.1317L23.7758 55.5417C19.6167 57.9959 17.1108 56.1617 18.1958 51.46L19.565 45.4925C19.8233 44.3817 19.3583 42.8059 18.5575 41.9792L13.7783 37.2C10.9367 34.3584 11.8667 31.4909 15.8192 30.845L21.9933 29.8117C23.0267 29.6309 24.2667 28.7267 24.7317 27.7967L28.1417 20.9767C29.9758 17.2567 33.0242 17.2567 34.8583 20.9509Z" fill="#F2921D"/>
<path d="M16 25.1875C14.9408 25.1875 14.0625 24.3091 14.0625 23.25V5.16663C14.0625 4.10746 14.9408 3.22913 16 3.22913C17.0592 3.22913 17.9375 4.10746 17.9375 5.16663V23.25C17.9375 24.3091 17.0592 25.1875 16 25.1875Z" fill="#F2921D"/>
<path d="M47 25.1875C45.9408 25.1875 45.0625 24.3091 45.0625 23.25V5.16663C45.0625 4.10746 45.9408 3.22913 47 3.22913C48.0592 3.22913 48.9375 4.10746 48.9375 5.16663V23.25C48.9375 24.3091 48.0592 25.1875 47 25.1875Z" fill="#F2921D"/>
<path d="M31.5 12.2708C30.4408 12.2708 29.5625 11.3925 29.5625 10.3333V5.16663C29.5625 4.10746 30.4408 3.22913 31.5 3.22913C32.5592 3.22913 33.4375 4.10746 33.4375 5.16663V10.3333C33.4375 11.3925 32.5592 12.2708 31.5 12.2708Z" fill="#F2921D"/>
</svg>
