<svg width="9" height="10" viewBox="0 0 9 10" fill="none" xmlns="http://www.w3.org/2000/svg">
<path d="M7.45464 5.07376C7.31716 5.07376 7.20315 4.95976 7.20315 4.82228V3.70904C7.20315 3.29325 6.86448 2.95458 6.44869 2.95458H1.80788C1.6704 2.95458 1.5564 2.84057 1.5564 2.70309C1.5564 2.56561 1.6704 2.4516 1.80788 2.4516H6.44869C7.14279 2.4516 7.70613 3.01493 7.70613 3.70904V4.82228C7.70613 4.96311 7.59212 5.07376 7.45464 5.07376Z" fill="#FFA000"/>
<path d="M2.86749 4.01751C2.80378 4.01751 2.74007 3.99402 2.68977 3.94372L1.63017 2.88413C1.58322 2.83719 1.5564 2.77347 1.5564 2.7064C1.5564 2.63934 1.58322 2.57564 1.63017 2.52869L2.68977 1.46908C2.78701 1.37184 2.94796 1.37184 3.04521 1.46908C3.14245 1.56632 3.14245 1.72729 3.04521 1.82454L2.16333 2.7064L3.04521 3.58829C3.14245 3.68553 3.14245 3.84648 3.04521 3.94372C2.99491 3.99067 2.9312 4.01751 2.86749 4.01751Z" fill="#FFA000"/>
<path d="M7.45464 7.54507H2.81384C2.11973 7.54507 1.5564 6.98173 1.5564 6.28763V5.17437C1.5564 5.03689 1.6704 4.92288 1.80788 4.92288C1.94536 4.92288 2.05937 5.03689 2.05937 5.17437V6.28763C2.05937 6.70342 2.39804 7.04209 2.81384 7.04209H7.45464C7.59212 7.04209 7.70613 7.1561 7.70613 7.29358C7.70613 7.43106 7.59212 7.54507 7.45464 7.54507Z" fill="#FFA000"/>
<path d="M6.39506 8.60467C6.33135 8.60467 6.26764 8.58121 6.21734 8.53091C6.1201 8.43367 6.1201 8.2727 6.21734 8.17546L7.09922 7.29359L6.21734 6.4117C6.1201 6.31446 6.1201 6.15351 6.21734 6.05627C6.31458 5.95903 6.47553 5.95903 6.57278 6.05627L7.63238 7.11586C7.67933 7.16281 7.70615 7.22653 7.70615 7.29359C7.70615 7.36065 7.67933 7.42435 7.63238 7.4713L6.57278 8.53091C6.52583 8.58121 6.46212 8.60467 6.39506 8.60467Z" fill="#FFA000"/>
</svg>
