<svg width="18" height="17" viewBox="0 0 18 17" fill="none" xmlns="http://www.w3.org/2000/svg">
<path fill-rule="evenodd" clip-rule="evenodd" d="M10.6818 9.21013V9.20838C10.5855 9.21538 10.0894 9.24513 8.98251 9.24513C8.09876 9.24513 7.47664 9.21888 7.25789 9.20838V9.211C3.85589 9.06138 1.31664 8.469 1.31664 7.76025C1.31664 7.05238 3.85589 6.46 7.25789 6.30775V8.62125C7.48014 8.637 8.11714 8.67463 8.99739 8.67463C10.0535 8.67463 10.5829 8.63088 10.6818 8.62213V6.3095C14.0768 6.46088 16.6099 7.05325 16.6099 7.76025C16.6099 8.469 14.0768 9.05963 10.6818 9.21013ZM10.6818 6.06888V3.99863H15.419V0.841629H2.52064V3.99863H7.25789V6.068C3.40789 6.24475 0.512512 7.00775 0.512512 7.92125C0.512512 8.83475 3.40789 9.59688 7.25789 9.7745V16.4088H10.6818V9.77275C14.5256 9.596 17.414 8.83388 17.414 7.92125C17.414 7.00863 14.5256 6.2465 10.6818 6.06888Z" fill="white"/>
</svg>
